<?xml version="1.0" encoding="iso-8859-1"?>
<!-- Uploaded to: SVG Repo, www.svgrepo.com, Generator: SVG Repo Mixer Tools -->
<svg version="1.1" id="Layer_1" xmlns="http://www.w3.org/2000/svg" xmlns:xlink="http://www.w3.org/1999/xlink" 
	 viewBox="0 0 512 512" xml:space="preserve">
<path style="fill:#E3B236;" d="M461.913,55.652H104.12c-19.098,0-36.272,10.614-44.804,27.69l-36.242,72.484H512v-50.087
	C512,78.12,489.532,55.652,461.913,55.652z"/>
<path style="fill:#DA9A2B;" d="M461.913,55.652H256v100.174h256v-50.087C512,78.12,489.532,55.652,461.913,55.652z"/>
<path style="fill:#E3B236;" d="M0,222.609V256v83.478c0,27.619,22.468,50.087,50.087,50.087h411.826
	c27.619,0,50.087-22.468,50.087-50.087v-116.87H0z"/>
<path style="fill:#DA9A2B;" d="M256,389.565h205.913c27.619,0,50.087-22.468,50.087-50.087v-116.87H256V389.565z"/>
<path style="fill:#6E6057;" d="M39.769,122.435l-16.696,33.391L8.815,184.342C3.054,195.87,0,208.782,0,221.679v0.929V256h512
	V122.435H39.769z"/>
<rect x="256" y="122.435" style="fill:#615349;" width="256" height="133.565"/>
<path style="fill:#8C6D50;" d="M50.087,289.391H0v33.391h50.087c9.217,0,16.696-7.473,16.696-16.696S59.304,289.391,50.087,289.391z
	"/>
<polyline style="fill:#DA9A2B;" points="411.826,256 378.435,256 378.435,122.435 411.826,122.435 "/>
<polyline style="fill:#E3B236;" points="133.565,256 100.174,256 100.174,122.435 133.565,122.435 "/>
<rect x="200.348" y="122.435" style="fill:#A7E2E2;" width="111.304" height="267.13"/>
<rect x="256" y="122.435" style="fill:#8AC8C8;" width="55.652" height="267.13"/>
<path style="fill:#6E6057;" d="M133.565,456.348c-36.826,0-66.783-29.956-66.783-66.783s29.956-66.783,66.783-66.783
	s66.783,29.956,66.783,66.783S170.391,456.348,133.565,456.348z"/>
<path style="fill:#615349;" d="M200.348,389.565c0-36.826-29.956-66.783-66.783-66.783v133.565
	C170.391,456.348,200.348,426.391,200.348,389.565z"/>
<path style="fill:#DBDFE3;" d="M133.565,356.174c-18.413,0-33.391,14.978-33.391,33.391c0,18.413,14.978,33.391,33.391,33.391
	s33.391-14.978,33.391-33.391C166.957,371.152,151.978,356.174,133.565,356.174z"/>
<path style="fill:#CAD1D7;" d="M166.957,389.565c0-18.413-14.978-33.391-33.391-33.391v66.783
	C151.978,422.957,166.957,407.978,166.957,389.565z"/>
<path style="fill:#6E6057;" d="M378.435,456.348c-36.826,0-66.783-29.956-66.783-66.783s29.956-66.783,66.783-66.783
	s66.783,29.956,66.783,66.783S415.261,456.348,378.435,456.348z"/>
<path style="fill:#615349;" d="M445.217,389.565c0-36.826-29.956-66.783-66.783-66.783v133.565
	C415.261,456.348,445.217,426.391,445.217,389.565z"/>
<path style="fill:#DBDFE3;" d="M378.435,356.174c-18.413,0-33.391,14.978-33.391,33.391c0,18.413,14.978,33.391,33.391,33.391
	c18.413,0,33.391-14.978,33.391-33.391C411.826,371.152,396.848,356.174,378.435,356.174z"/>
<path style="fill:#CAD1D7;" d="M411.826,389.565c0-18.413-14.978-33.391-33.391-33.391v66.783
	C396.848,422.957,411.826,407.978,411.826,389.565z"/>
</svg>