<svg xmlns="http://www.w3.org/2000/svg" width="655.359" height="655.359" fill-rule="evenodd" clip-rule="evenodd" image-rendering="optimizeQuality" shape-rendering="geometricPrecision" text-rendering="geometricPrecision" viewBox="0 0 6.827 6.827"><defs><clipPath id="a"><path d="M3.424.086a3.413 3.413 0 1 1 0 6.826 3.413 3.413 0 0 1 0-6.826z"/></clipPath></defs><path fill="#388e3c" d="M3.424.086a3.413 3.413 0 1 1 0 6.826 3.413 3.413 0 0 1 0-6.826z"/><g fill="#2e6d31" clip-path="url(#a)"><path d="M1.774 5.415 5.56 9.201h.001L1.775 5.415h-.001zM2.663 2.306l3.786 3.786-.927-.205-3.786-3.786z"/><path d="M1.844 2.14 5.63 5.927v.82L1.844 2.961zM1.936 3.013l3.786 3.786.005.005-3.786-3.786zM2.006 3.177l3.787 3.786v.01l-.001.006v.005l-.001.005v.005l-.001.005-.001.005-.001.005-.001.005-.001.005-.002.004-.001.005-.001.005-.002.005-.002.004-.002.005-.001.005-.002.004-.003.004-.002.005-.002.004-.002.005-.003.004-.002.004-.003.004-.003.004-.003.004-.003.004-.002.004-.004.004-.003.003-3.786-3.786.003-.004.003-.003.003-.004.003-.004.003-.004.003-.004.002-.004.003-.005.002-.004.003-.004.002-.004.002-.005.002-.004.002-.005.002-.004.002-.005.002-.005.001-.004.002-.005.001-.005L2 3.232l.001-.005.001-.004.001-.005.001-.005v-.005l.001-.006.001-.005v-.015zM1.952 3.323l3.786 3.786.002.004.001.003.001.004v.003l.001.004.001.003v.008L1.958 3.352v-.004l-.001-.004V3.34l-.001-.003-.001-.004-.001-.003-.001-.004zM1.958 3.352l3.786 3.786v.294L1.958 3.646z"/><path d="m1.958 3.646 3.786 3.786v.009l-.001.009-.001.009-.002.008-.002.009-.002.008-.003.008-.003.008-.004.008-.003.008-.005.007-.004.007-.005.007-.005.007-.006.006-.006.006L1.906 3.77l.006-.006.005-.006.006-.007.005-.007.004-.007.004-.007.004-.008.004-.008.003-.008.003-.008.002-.008.002-.009.002-.009.001-.008v-.009z"/><path d="m1.906 3.77 3.786 3.786-.006.006-.006.006-.007.005-.007.005-.007.004-.007.005-.008.004-.008.003-.008.003-.008.003-.008.002-.009.002-.008.002-.009.001-.009.001h-.009L1.782 3.822l.009-.001H1.8l.008-.001.009-.002.009-.002.008-.002.008-.003.008-.003.008-.004.007-.004.008-.004.007-.004.007-.005.006-.006.007-.005z"/><path d="m1.782 3.822 3.786 3.786h-.009l-.009-.001-.009-.001-.008-.002-.009-.002-.008-.002-.008-.003-.008-.003-.008-.003-.008-.004-.007-.005-.007-.004-.007-.005-.007-.005-.006-.006-3.787-3.786.007.005.007.006.006.005.008.004.007.004.007.004.008.004.008.003.008.003.009.002.008.002.009.002.009.001h.009zM4.26 2.369l3.787 3.787.002.004.002.004.002.003.002.004.002.004.002.004.002.004.002.004.002.004.002.005.002.004.002.004.002.004.002.004.002.004.002.004-3.787-3.786-.001-.004-.002-.004-.002-.004-.002-.005-.002-.004-.002-.004-.002-.004-.002-.004-.002-.004-.002-.004-.002-.004-.002-.004-.002-.004-.002-.004-.002-.004zM3.461 2.596l3.786 3.787-.794-.289-3.786-3.787z"/><path d="m2.69 2.323 3.786 3.786.004.005.003.005.003.005.003.006.001.005.002.006V6.159l-.001.006-.002.006-.002.006-.003.006-3.786-3.786.003-.006.002-.006.002-.006.001-.006v-.012l-.001-.006-.001-.006-.002-.005-.002-.006-.003-.005-.003-.005z"/><path d="m2.698 2.397 3.786 3.786-.001.003-.002.002-.002.003-.001.003-.002.003-.001.003-.002.002-.002.003-.001.003-.002.003-.001.003-.002.003-.001.003-.002.003-.001.002-.002.003-3.786-3.786.001-.003.002-.003.001-.003.002-.003.002-.002.001-.003.002-.003.001-.003.002-.003.001-.003.002-.003.001-.002.002-.003.002-.003.001-.003zM5.015 2.046l3.786 3.786-1.554.551-3.786-3.787z"/><path d="M4.253 2.359 8.04 6.145l.003.005.004.006L4.26 2.369l-.003-.005zM4.292 2.434 8.079 6.22l.003.008.003.007.003.007.003.007.004.008.003.007.003.007.003.008.003.007.003.008.003.008.002.007.003.008.003.008.003.008.003.008L4.34 2.555l-.002-.008-.003-.008-.003-.008-.003-.008-.003-.008-.003-.007L4.32 2.5l-.003-.007-.003-.008-.003-.007-.003-.008-.003-.007-.003-.007-.003-.008-.003-.007zM4.34 2.555l3.787 3.786.002.006.002.006.002.007.002.006.002.006.002.006.002.007.002.006.002.007.002.006.002.007.001.006.002.007.002.006.002.007.002.007.002.006.001.007.002.007.002.007.001.007.002.007.002.007.001.007.002.007.002.007.001.007.002.007.001.007.002.008.001.007.002.007L4.397 2.77l-.001-.007-.002-.008-.001-.007-.002-.007-.001-.007-.002-.008-.001-.007-.002-.007-.002-.007-.001-.007-.002-.007-.002-.006-.001-.007-.002-.007-.002-.007-.001-.007-.002-.006-.002-.007-.002-.007-.002-.006-.002-.007-.002-.006-.001-.007-.002-.006-.002-.007-.002-.006-.002-.006-.002-.007-.002-.006-.002-.006-.002-.006zM4.397 2.77l3.787 3.786.367.696-3.786-3.786zM4.765 3.466l3.786 3.786.002.004.002.003.001.004.001.004.001.004v.004l.001.003v.004l-.001.004v.004l-.001.004v.003l-.002.004-.001.003-.001.004-.002.003-3.786-3.786.001-.003.002-.004.001-.003.001-.004.001-.004.001-.003v-.02l-.001-.003-.001-.004-.002-.004-.001-.004zM4.765 3.525l3.786 3.786-.003.006-.004.008-.005.009-.006.011-.008.013-.009.014-.01.015-.012.017-.013.018-.015.019-.016.02-.018.02-.02.022-.022.022-.023.022-.025.023-.028.023-.029.023-.031.023-.034.023-.035.023-.038.022-.04.022-.042.022-.045.021-.047.02-.05.019-.052.019-.055.017-.057.016-.06.015-.063.013L3.85 4.105l.062-.014.061-.014.057-.016.055-.018.052-.018.05-.019.047-.02.044-.021.043-.022.04-.022.038-.023.035-.022.033-.023.032-.024.029-.023.027-.023.026-.022.023-.023.022-.022.019-.021.019-.02.016-.02.015-.019.013-.018.012-.017.01-.015.009-.014.008-.013.006-.011.005-.01.004-.007z"/><path d="m3.85 4.105 3.786 3.786.103.402-3.786-3.787zM4.87 4.874 8.657 8.66l.034.037.031.038.029.038.025.037.022.036.02.035.017.035.015.032.013.031.011.029.008.026.008.024.005.02.004.018.004.014.002.011.001.007v.002L5.12 5.344l-.001-.003-.001-.006-.002-.011-.003-.014-.004-.018-.006-.021-.007-.023-.009-.027-.01-.028-.013-.031-.015-.033-.017-.034-.02-.035-.022-.037-.026-.037-.028-.037-.031-.038z"/><path d="M5.12 5.344 8.906 9.13l.001.006-.001.007v.006l-.001.006-.002.006-.003.005-.003.005-.003.005-.004.005-.004.004-.005.004-.005.003-.005.003-.006.003-.006.001-.006.002-3.786-3.787.006-.001.006-.002.006-.002.005-.003.005-.003.005-.004.004-.004.004-.005.003-.005.003-.005.002-.006.002-.005.002-.006V5.35z"/><path d="m5.067 5.414 3.786 3.787H8.842L5.056 5.415H5.065z"/><path d="m5.056 5.415 3.786 3.786h-.001L5.054 5.415h.002zM3.104 4.125l3.787 3.786h-.004l-.003-.001H6.88l-.003-.001h-.004l-.003-.001h-.004l-.004-.001h-.003l-.004-.001h-.003l-.004-.001-.003-.001h-.004l-.003-.001h-.003L3.048 4.117h.004l.003.001h.004l.003.001h.004l.003.001h.004l.003.001h.004l.003.001h.004l.003.001h.004l.003.001h.004zM1.941 3.018l3.786 3.786.004.004.003.004.004.004.003.004.004.004.003.004.003.005.003.004.003.005.003.004.003.005.003.005.002.005.003.004.002.005.002.005.002.005.002.006.002.005.002.005.001.005.002.006.001.005.001.006.001.005.001.006.001.005.001.006v.011l.001.006v.006L2.006 3.177V3.159l-.001-.005v-.006l-.001-.006-.001-.005-.001-.006-.001-.005-.002-.006-.001-.005-.002-.005-.001-.005-.002-.006-.002-.005-.002-.005-.002-.005-.003-.005-.002-.005-.003-.005-.002-.004-.003-.005-.003-.005-.003-.004-.003-.005-.003-.004-.003-.004-.004-.004-.003-.004-.004-.005-.004-.003z"/><path d="m2.981 4.105 3.786 3.786-.062-.013-.06-.015-.058-.016-.055-.017-.052-.019-.049-.019-.048-.02-.044-.021-.043-.022-.04-.022-.037-.022-.036-.023-.033-.023-.032-.023-.029-.023-.027-.023-.026-.023L2.25 3.761l.026.022.027.023.029.023.031.024.034.023.035.022.038.023.04.022.042.022.045.021.047.02.05.019.052.018.055.018.057.016.06.014zM3.048 4.117l3.787 3.786-.005-.001-.004-.001h-.004L6.817 7.9l-.004-.001-.004-.001h-.004l-.004-.001-.005-.001h-.004l-.004-.001-.004-.001-.004-.001-.004-.001h-.004l-.005-.001-3.786-3.786h.004l.004.001.005.001.004.001h.004l.004.001.004.001.004.001h.005l.004.001.004.001.004.001h.004l.005.001.004.001z"/><path d="m5.054 5.415 3.787 3.786h-3.28L1.775 5.415z"/><path d="M1.775 5.415h-.001zm.07-3.275v.82a.225.225 0 0 1 .107.363.075.075 0 0 1 .006.029v.294a.175.175 0 0 1-.3.124.175.175 0 0 1-.052-.124v-.294c0-.01.002-.02.005-.029a.224.224 0 0 1 .012-.305.225.225 0 0 1 .096-.057v-.868c.008.007.015.01.017.008l.108.04zm1.584-.597 1.586.503-1.554.55-.794-.289a.062.062 0 0 1 .03.09l-.024.045.762.278c.014.006.03.007.046.002l.693-.246a1.025 1.025 0 0 0-.023-.048.062.062 0 0 1 .11-.059 1.191 1.191 0 0 1 .08.186c.022.065.041.136.056.215l.368.696c.01.019.01.041 0 .06-.024.05-.23.445-.915.579l.103.401c1.067.066 1.166.836 1.167.838a.062.062 0 0 1-.066.071h-3.28c.03 0 .056-.023.06-.054 0 0 .004-.027.018-.071.054-.178.27-.628 1.077-.662.008.012.054-.022.06-.052l.115-.451a2.405 2.405 0 0 1-.123-.02c-.685-.134-.891-.53-.915-.58a.062.062 0 0 1 0-.06l.367-.695a1.608 1.608 0 0 1 .122-.37 1.11 1.11 0 0 1 .035-.066.062.062 0 0 1 .073-.028L1.736 2.1l1.693-.558z"/></g><path fill="none" d="M3.424.086a3.413 3.413 0 1 1 0 6.826 3.413 3.413 0 0 1 0-6.826z"/><path fill="#fffffe" fill-rule="nonzero" d="M4.258 2.368a.062.062 0 0 0-.11.058c.027.05.05.105.072.167.022.063.04.132.054.208a.062.062 0 0 0 .009.021l.355.672c-.051.09-.266.398-.878.498a2.28 2.28 0 0 1-.355.03.062.062 0 0 0 .001.125 2.8 2.8 0 0 0 .374-.032c.74-.12.958-.54.983-.592a.062.062 0 0 0 0-.059l-.368-.696a1.631 1.631 0 0 0-.057-.215 1.263 1.263 0 0 0-.08-.185z"/><path fill="#fffffe" fill-rule="nonzero" d="M4.994 5.36a.062.062 0 0 0 .124-.018c0-.002-.1-.772-1.167-.837l-.12-.467a.062.062 0 0 0-.12.03l.13.506a.063.063 0 0 0 .059.053l.002-.063-.002.063c1.005.041 1.094.73 1.094.733zM2.696 2.395a.062.062 0 1 0-.108-.063 1.217 1.217 0 0 0-.092.199c-.026.072-.048.15-.065.237l-.367.696a.062.062 0 0 0 0 .06c.024.051.243.47.982.59a2.403 2.403 0 0 0 .374.033.062.062 0 0 0 .002-.125 2.669 2.669 0 0 1-.356-.03c-.611-.1-.826-.407-.877-.498l.355-.672a.062.062 0 0 0 .008-.021c.016-.085.037-.16.061-.228.024-.066.052-.126.083-.178z"/><path fill="#fffffe" fill-rule="nonzero" d="M1.709 5.342a.062.062 0 0 0 .124.018c0-.002.089-.692 1.094-.733l-.003-.063.003.063a.063.063 0 0 0 .06-.053l.13-.505a.062.062 0 0 0-.121-.031l-.12.467c-1.067.065-1.167.835-1.167.837zm1.739-3.925 1.78.564-.019.06.02-.06a.063.063 0 0 1-.002.12l-1.748.619a.062.062 0 0 1-.046-.002l-1.7-.619.022-.058-.021.058a.062.062 0 0 1 .006-.119l1.667-.563a.062.062 0 0 1 .04 0zm1.565.627-1.586-.503-1.484.502 1.516.552 1.554-.551z"/><path fill="#fffffe" fill-rule="nonzero" d="M1.842 2.065a.063.063 0 0 0-.125 0v.894a.225.225 0 0 0-.108.362.075.075 0 0 0-.005.029v.294a.175.175 0 0 0 .3.124.175.175 0 0 0 .052-.124V3.35c0-.01-.002-.02-.006-.029a.224.224 0 0 0-.011-.305.225.225 0 0 0-.097-.057v-.894zm0 .948H1.78v.062a.063.063 0 0 0 .062-.062zm-.062 0h-.063c0 .034.028.062.063.062a.1.1 0 0 1 .1.1.1.1 0 0 1-.093.1H1.78V3.4h.05v.244a.05.05 0 0 1-.014.036.05.05 0 0 1-.087-.036V3.4h.05v-.125h-.006a.1.1 0 0 1-.093-.1.1.1 0 0 1 .1-.1v-.062zm-.007 2.275a.063.063 0 0 0 0 .125h3.28a.063.063 0 0 0 0-.125h-3.28z"/></svg>