<svg xmlns="http://www.w3.org/2000/svg" width="655.359" height="655.359" fill-rule="evenodd" clip-rule="evenodd" image-rendering="optimizeQuality" shape-rendering="geometricPrecision" text-rendering="geometricPrecision" viewBox="0 0 6.827 6.827"><defs><clipPath id="a"><path d="M3.413 0a3.413 3.413 0 1 1 0 6.827 3.413 3.413 0 0 1 0-6.827z"/></clipPath></defs><path fill="#512da8" d="M3.413 0a3.413 3.413 0 1 1 0 6.827 3.413 3.413 0 0 1 0-6.827z"/><g fill="#3d2575" clip-path="url(#a)"><path d="M4.723 1.953 8.51 5.739l-1.272.451-3.787-3.786zM1.981 1.996l3.786 3.786.003.004L1.984 2z"/><path d="M3.451 2.404 7.238 6.19l-1.451-.396-3.786-3.786zM2.242 2.901l3.786 3.786v.009l-.001.009-.001.008-.001.009-.002.008-.002.009-.002.008-.003.008-.003.007-.003.008-.004.008-.004.007-.004.007-.005.007-.004.007-.005.006-3.787-3.786.005-.007.005-.006.005-.007.004-.007.004-.008.004-.007.003-.008.003-.008.003-.008.002-.008.002-.008.002-.008.001-.009.001-.009V2.91zM2.197 3.026l3.787 3.786v.003l.001.002.001.003v.006l.001.002v.006L2.201 3.048v-.003L2.2 3.042v-.005l-.001-.003v-.003l-.001-.003zM2.201 3.048l3.786 3.786v.247L2.201 3.294z"/><path d="m2.201 3.294 3.786 3.787v.008l-.001.008-.001.008-.001.007-.002.008-.002.008-.003.007-.002.007-.004.007-.003.007-.004.006-.004.007-.004.006-.005.006-.005.006-.005.005-3.787-3.786.006-.006.005-.005.004-.006.005-.007.004-.006.004-.007.003-.006.003-.007.003-.007.003-.008.002-.007.001-.008.002-.008.001-.007.001-.008zM2.154 3.406l3.787 3.786-.006.005-.005.005-.006.005-.007.004-.006.004-.007.004-.006.004-.007.003-.008.003-.007.002-.007.002-.008.002-.008.002-.008.001h-.016L2.043 3.452h.008l.008-.001.008-.001.008-.001.007-.002.008-.002.007-.003.007-.002.007-.003.007-.004.007-.004.006-.004.006-.004.006-.005.006-.005zM2.043 3.452l3.786 3.786h-.016l-.008-.001-.007-.002-.008-.002-.008-.002-.007-.002-.007-.003-.007-.003-.007-.004-.006-.004-.007-.004-.006-.004-.006-.005-.006-.005-3.786-3.786.006.005.006.005.006.004.006.004.007.004.007.004.007.003.007.002.007.003.008.002.007.002.008.001.008.001.008.001zM2.106 2.046l3.786 3.786v.667L2.106 2.712zM6.425 6.552zM2.638 2.766z"/><path d="m3.769 4.09 3.786 3.786-.005.004-.004.004-.004.004-.003.005-.003.004-.002.005-.002.005-.002.006-.001.005-.001.006v.005l.001.006.001.005.001.006.002.005.002.006L3.749 4.17l-.002-.005-.002-.005-.002-.006-.001-.006v-.011l.001-.005.001-.006.001-.005.002-.005.003-.005.003-.005.003-.004.004-.004.004-.004zM2.819 4.572l3.786 3.787-3.786-3.786zM1.809 5.413 5.595 9.2h-.002L1.806 5.413h.003z"/><path d="m3.749 4.17 3.787 3.786.023.045-3.786-3.786zM3.791 4.071l3.786 3.786-.004.004-.003.003-.003.003-.003.002-.003.002-.002.002-.002.002-.002.001L3.769 4.09l.001-.001.002-.002.003-.002.002-.002.003-.003.004-.003.003-.003zM4.961 5.34l3.786 3.786-.001.007v.006l.001.006.001.006.001.006.003.006.002.005.004.005.003.005.004.004-3.786-3.786-.004-.005-.004-.004-.003-.005-.003-.006-.002-.005-.001-.006-.002-.006V5.346zM2.184 2.76 5.97 6.547l.003.003.003.004.004.003.003.004.003.004.002.003.003.004.003.004.003.004.002.004.003.004.002.005.002.004.002.004.002.004.002.005.002.004.002.005.002.005.001.004.001.005.002.005.001.004.001.005.001.005.001.005v.005l.001.005v.005l.001.005v.01L2.242 2.901v-.005l-.001-.005v-.01l-.001-.005-.001-.005v-.005l-.001-.005-.001-.005-.002-.005-.001-.004-.001-.005-.002-.005-.001-.004-.002-.005-.002-.004-.002-.005-.002-.004-.002-.004-.002-.005-.003-.004-.002-.004-.003-.004-.002-.004-.003-.004-.003-.004-.003-.004-.003-.003-.003-.004-.003-.004-.003-.003z"/><path d="m3.94 4.535 3.786 3.786.002.005.003.004.003.005.003.004.004.003-3.787-3.786-.003-.004-.003-.004-.003-.004-.003-.005z"/><path d="m3.773 4.215 3.786 3.786.167.32L3.94 4.535zM4.807 4.737l3.786 3.786.027.031.024.032.022.033.018.034.016.034.014.035.011.034.009.035.008.034.006.034.004.032.003.032.002.03v.08l-.002.022-.001.02-3.787-3.787.002-.019.001-.023.001-.024v-.027l-.001-.028-.001-.031-.003-.031-.005-.033-.005-.033-.008-.034-.009-.035-.012-.035-.013-.034-.016-.035-.019-.034-.021-.033-.024-.032z"/><path d="m4.967 5.288 3.787 3.787-.001.005v.006l-.001.005-.001.005v.005l-.001.004v.004l-.001.003v.004l-.001.002v.006l-.001.001v.001L4.961 5.34v-.002l.001-.002v-.004l.001-.003v-.003l.001-.003v-.004l.001-.004V5.31l.001-.005V5.3l.001-.006zM5.013 5.413l3.786 3.786h-.006l-.001.001h-.003L5.003 5.413H5.012zM4.313 2.628 8.1 6.414v-.001L4.313 2.627v.001z"/><path d="M5.003 5.413 8.789 9.2H5.595L1.809 5.413zM7.975 6.32zM4.188 2.534zm.125.093zm-2.207-.58v.665a.199.199 0 0 1 .091.314.072.072 0 0 1 .004.022v.246a.157.157 0 0 1-.27.112.157.157 0 0 1-.046-.112v-.246c0-.008.002-.015.004-.022a.197.197 0 0 1 .014-.266.199.199 0 0 1 .078-.048v-.716c.008.01.018.015.02.012l.105.038zm.532.719zm2.375 2.647H1.807a.062.062 0 0 0 .059-.073s-.004-.02-.007-.052c-.018-.195-.01-.87.96-.716a.063.063 0 0 0 .068-.037l.162-.31.028-.055a.063.063 0 0 0-.01-.073.77.77 0 0 0 .351.075 1 1 0 0 0 .373-.101.654.654 0 0 1-.022.02.063.063 0 0 0-.02.08l.024.044.167.32c.01.026.038.042.067.038.971-.155.978.52.96.715-.002.033-.006.052-.006.052a.062.062 0 0 0 .052.073zM3.425 1.54l1.298.412-1.272.45-1.45-.395 1.424-.467zm.763.993z"/></g><path fill="none" d="M3.413 0a3.413 3.413 0 1 1 0 6.827 3.413 3.413 0 0 1 0-6.827z"/><path fill="#fffffe" fill-rule="nonzero" d="M1.743 5.362a.062.062 0 0 0 .123-.022c0-.003-.177-.947.953-.768l.01-.061-.01.062a.063.063 0 0 0 .068-.038l.19-.365a.063.063 0 0 0-.019-.08c-.03-.025-.266-.228-.31-.512l-.062.01.062-.01a.063.063 0 0 0-.002-.008l-.04-.197-.062.012.061-.012a.062.062 0 0 0-.044-.048l-.175-.065v-.317l.134-.133a.062.062 0 0 0 .018-.044v-.469a.331.331 0 0 1 .069-.06.062.062 0 0 0-.07-.102.428.428 0 0 0-.11.104.062.062 0 0 0-.014.039v.462l-.13.13a.062.062 0 0 0-.022.047v.385c0 .026.015.05.04.06h.001l.188.07.034.163v.002c.043.274.237.48.32.559l-.15.287c-1.255-.175-1.052.915-1.051.919zM4.39 2.126a.062.062 0 0 0-.11.06l.01.017.008.016.056-.028-.056.028c.004.008.01.015.017.02.01.01.058.074-.11.252l.045.043-.046-.043a.062.062 0 0 0-.017.043v.093a.063.063 0 0 0 .125 0v-.069c.21-.233.126-.367.093-.404l-.005-.01-.01-.018z"/><path fill="#fffffe" fill-rule="nonzero" d="M4.96 5.34a.062.062 0 0 0 .124.022c0-.004.204-1.094-1.052-.92l-.15-.286c.084-.078.278-.285.32-.56l.034-.164.189-.07a.063.063 0 0 0 .04-.06v-.385a.062.062 0 0 0-.021-.047l-.13-.13v-.113a.063.063 0 0 0-.126 0v.139c0 .016.006.032.019.044l.133.133v.317l-.174.065a.062.062 0 0 0-.045.048l.061.012-.06-.012-.042.197a.063.063 0 0 0-.001.008l.061.009-.061-.01c-.044.285-.28.488-.31.513a.063.063 0 0 0-.02.08l.19.365c.012.026.04.042.068.038l-.01-.062.01.061c1.131-.179.954.765.954.768zM3.447 1.417l1.493.473c.026-.003.05.05.04.078a.062.062 0 0 1-.042.042l-1.465.519c.003.007-.04.001-.046-.002L2 2.008c-.007.007-.054-.034-.037-.08a.062.062 0 0 1 .043-.039l1.398-.472c-.002-.006.035-.002.04 0zm1.277.536L3.425 1.54l-1.214.41 1.24.453 1.272-.451z"/><path fill="#fffffe" fill-rule="nonzero" d="M2.106 1.97a.063.063 0 0 0-.125 0v.742a.199.199 0 0 0-.092.314.072.072 0 0 0-.004.022v.246a.157.157 0 0 0 .27.112.157.157 0 0 0 .046-.112v-.246a.072.072 0 0 0-.004-.022.197.197 0 0 0-.013-.266.199.199 0 0 0-.078-.048V1.97zm0 .795h-.063v.062a.063.063 0 0 0 .063-.062zm-.063 0h-.062c0 .034.028.062.062.062a.073.073 0 0 1 .074.074.074.074 0 0 1-.068.074h-.006v.124h.033v.195a.033.033 0 0 1-.01.023.033.033 0 0 1-.056-.023V3.1h.033v-.125h-.006a.073.073 0 0 1-.068-.074.073.073 0 0 1 .074-.074v-.062zm.99 1.316a.793.793 0 0 0 .385.09c.124-.004.25-.043.391-.109l.053.114a1.142 1.142 0 0 1-.44.12.912.912 0 0 1-.444-.102l.054-.113zm1.97 1.332a.063.063 0 0 0 0-.125H1.81a.063.063 0 0 0 0 .125h3.194z"/></svg>