<?xml version="1.0" encoding="utf-8"?>
<!-- Uploaded to: SVG Repo, www.svgrepo.com, Generator: SVG Repo Mixer Tools -->
<svg width="800px" height="800px" viewBox="-1 0 20 20" xmlns="http://www.w3.org/2000/svg">
  <g id="user-2" transform="translate(-3 -2)">
    <path id="secondary" fill="#2ca9bc" d="M8,15h8a4,4,0,0,1,4,4h0a2,2,0,0,1-2,2H6a2,2,0,0,1-2-2H4a4,4,0,0,1,4-4Z"/>
    <path id="primary" d="M20,19h0a2,2,0,0,1-2,2H6a2,2,0,0,1-2-2H4a4,4,0,0,1,4-4h8A4,4,0,0,1,20,19ZM12,3a4,4,0,1,0,4,4A4,4,0,0,0,12,3Z" fill="none" stroke="#000000" stroke-linecap="round" stroke-linejoin="round" stroke-width="2"/>
  </g>
</svg>